<svg width="463" height="463" viewBox="0 0 463 463" fill="none" xmlns="http://www.w3.org/2000/svg">
<path d="M231.38 462.76C359.168 462.76 462.76 359.168 462.76 231.38C462.76 103.592 359.168 0 231.38 0C103.592 0 0 103.592 0 231.38C0 359.168 103.592 462.76 231.38 462.76Z" fill="#2B4C68"/>
<path d="M231.38 405.9C327.765 405.9 405.9 327.765 405.9 231.38C405.9 134.995 327.765 56.86 231.38 56.86C134.995 56.86 56.86 134.995 56.86 231.38C56.86 327.765 134.995 405.9 231.38 405.9Z" fill="#223547"/>
<path d="M231.38 349.04C296.362 349.04 349.04 296.362 349.04 231.38C349.04 166.398 296.362 113.72 231.38 113.72C166.398 113.72 113.72 166.398 113.72 231.38C113.72 296.362 166.398 349.04 231.38 349.04Z" fill="#2B4C68"/>
<path d="M231.38 292.17C264.953 292.17 292.17 264.953 292.17 231.38C292.17 197.807 264.953 170.59 231.38 170.59C197.807 170.59 170.59 197.807 170.59 231.38C170.59 264.953 197.807 292.17 231.38 292.17Z" fill="#223547"/>
</svg>
