<svg width="57" height="57" viewBox="0 0 57 57" fill="none" xmlns="http://www.w3.org/2000/svg">
<path d="M28.09 56.61C43.5871 56.61 56.15 44.0471 56.15 28.55C56.15 13.0529 43.5871 0.48999 28.09 0.48999C12.5929 0.48999 0.0299988 13.0529 0.0299988 28.55C0.0299988 44.0471 12.5929 56.61 28.09 56.61Z" fill="#2B4C68"/>
<path d="M35.98 35.19C36.9686 35.19 37.77 34.3886 37.77 33.4C37.77 32.4114 36.9686 31.61 35.98 31.61C34.9914 31.61 34.19 32.4114 34.19 33.4C34.19 34.3886 34.9914 35.19 35.98 35.19Z" fill="white"/>
<path d="M11.34 28.27C12.3286 28.27 13.13 27.4686 13.13 26.48C13.13 25.4914 12.3286 24.69 11.34 24.69C10.3514 24.69 9.54999 25.4914 9.54999 26.48C9.54999 27.4686 10.3514 28.27 11.34 28.27Z" fill="white"/>
<path d="M20.47 41.32C23.88 42.28 27.58 39.82 28.9 35.79C28.97 35.57 28.84 35.33 28.61 35.26L16.67 31.91C16.44 31.85 16.2 31.98 16.15 32.21C15.18 36.34 17.06 40.36 20.47 41.32Z" fill="white"/>
</svg>
