<svg width="247" height="220" viewBox="0 0 247 220" fill="none" xmlns="http://www.w3.org/2000/svg">
<path d="M23.04 90.4L23 59.63L15.17 61.32C10.94 62.23 8.23 60.81 7.62 57.97C7.3 56.51 7.22 52.75 8.6 50.6C9.5 49.2 10.75 48.29 14.28 47.53L45.99 40.69C50.22 39.78 52.93 41.2 53.54 44.04C53.86 45.5 53.95 49.26 52.56 51.4C51.66 52.8 50.41 53.72 46.88 54.48L38.43 56.3L38.51 87.22C38.46 92.22 36.82 95.06 32.37 96.02L30.22 96.48C26 97.39 23.06 95.29 23.04 90.4Z" fill="white"/>
<path d="M83.18 77.76C82.7 75.53 82.76 73.19 83.03 68.47C83.24 64.97 83.25 62.4 82.98 61.17C82.37 58.33 80.45 56.89 77.54 57.52C75.01 58.07 73.63 59.49 72.49 62.06L72.47 79.9C72.55 85.51 71.01 87.69 67.25 88.5L65.72 88.83C61.72 89.69 57.83 88.76 57.73 83.08L57.58 41.01C57.59 35.46 59.13 33.28 62.9 32.47L64.43 32.14C68.43 31.28 72.38 32.11 72.32 37.83L72.41 53.88C74.23 48.91 78.19 44.92 83.64 43.74C90.71 42.22 95.97 46.15 97.49 53.21C98.07 55.9 98.03 59.44 97.71 64.65C97.49 68.47 97.37 71.63 97.7 73.17C98.18 75.4 99.39 76.18 101.49 76.21C101.64 76.18 101.38 81.7 93.86 83.32C87.42 84.71 84.16 82.28 83.18 77.76Z" fill="white"/>
<path d="M124.76 66.22C129.21 65.26 132.32 62.18 133.88 58.95C133.94 58.86 139.86 58.39 140.84 62.91C141.4 65.52 140.92 66.99 139.66 68.96C137.73 71.95 133.46 74.88 126.7 76.33C113.18 79.24 105.58 73.41 103.51 63.81C100.51 49.91 109.17 38.24 122.45 35.38C132.89 33.13 139.45 36.7 140.98 43.84C142.68 51.75 138.7 57.51 121.89 61.13C119.97 61.54 117.98 61.97 115.72 62.3C116.96 65.82 120.07 67.23 124.76 66.22ZM118.88 53.1C127.4 51.26 129.67 49.09 129.19 46.86C128.84 45.25 126.92 44.14 123.76 44.82C119.46 45.75 116.56 49.43 115.49 53.75C116.73 53.57 117.88 53.32 118.88 53.1Z" fill="white"/>
<path d="M22.8 150.75L22.75 113.23C22.77 108.08 24.56 105.21 29.01 104.25L30.39 103.95C33.62 103.25 35.52 103.88 38.15 106.77L55.34 126.53L55.27 106.06C55.24 101.08 56.65 98.29 61.1 97.33L62.79 96.96C67.01 96.05 69.72 98.19 69.66 103.11L69.8 140.69C69.77 145.76 67.98 148.63 63.6 149.58L62.67 149.78C59.53 150.46 57.62 149.83 54.91 146.96L37.15 126.44L37.25 147.79C37.28 152.77 35.87 155.56 31.42 156.52L29.66 156.9C25.52 157.79 22.8 155.65 22.8 150.75Z" fill="white"/>
<path d="M93.08 143.79C84.86 145.56 77.98 140.86 75.98 131.57C73.28 119.05 78.94 105.06 91.15 102.42C95.99 101.38 101.08 102.61 104.25 106.51C105.33 101.86 108.1 99.41 112.94 98.37C115.78 97.76 118.35 98.49 118.39 99.05L118.44 126.52C118.42 131.27 119.49 132.88 122.36 133.15C122.45 133.21 122.18 137.53 115.5 138.97C109.43 140.28 105.91 137.75 104.67 133.11C103.06 138.27 98.99 142.52 93.08 143.79ZM96.18 113.07C90.65 114.26 88.35 120.38 89.56 125.99C90.37 129.75 93.29 131.77 96.75 131.03C100.9 130.14 103.69 126.32 103.65 121.27L103.63 116.37C101.97 113.83 99.56 112.34 96.18 113.07Z" fill="white"/>
<path d="M175.27 84.29C182.18 82.8 187.51 87.04 188.97 93.79C189.55 96.48 189.51 100.02 189.19 105.23C188.97 109.05 188.84 112.21 189.18 113.75C189.66 115.98 190.88 116.76 192.97 116.79C193.2 116.74 192.87 122.27 185.34 123.9C178.97 125.27 175.63 122.86 174.66 118.33C174.18 116.1 174.24 113.76 174.51 109.04C174.72 105.54 174.73 102.97 174.46 101.74C173.85 98.9 171.85 97.48 169.47 97.99C167.48 98.42 166.06 99.69 164.84 102.2C164.82 102.12 164.96 120.25 164.96 120.25C164.96 125.88 163.35 128.07 159.58 128.88L158.05 129.21C154.05 130.07 150.18 129.23 150.21 123.43L150.13 108.9C150.09 104.98 148.05 102.6 145.21 103.22C143.07 103.68 141.73 104.93 140.53 107.2L140.54 125.52C140.62 131.13 139.01 133.32 135.17 134.15L133.71 134.46C129.71 135.32 125.82 134.39 125.79 128.69L125.7 96.57C125.71 96.25 127.42 95.23 129.8 94.72C133.56 93.91 137.59 95.05 139.25 100.16C141.51 94.61 145.26 90.75 150.94 89.52C156.24 88.38 161.12 90.54 163.43 95.27C165.6 89.75 169.2 85.6 175.27 84.29Z" fill="white"/>
<path d="M216.32 106.79C220.77 105.83 223.88 102.75 225.44 99.52C225.5 99.43 231.42 98.96 232.4 103.48C232.96 106.09 232.48 107.56 231.22 109.53C229.29 112.52 225.02 115.45 218.26 116.9C204.74 119.81 197.14 113.98 195.07 104.38C192.07 90.48 200.73 78.81 214.01 75.95C224.45 73.7 231.01 77.27 232.54 84.41C234.24 92.32 230.26 98.08 213.45 101.7C211.53 102.11 209.54 102.54 207.28 102.87C208.51 106.38 211.63 107.8 216.32 106.79ZM210.43 93.67C218.95 91.83 221.22 89.66 220.74 87.43C220.39 85.82 218.47 84.71 215.31 85.39C211.01 86.32 208.11 90 207.04 94.32C208.28 94.13 209.43 93.88 210.43 93.67Z" fill="white"/>
<path d="M60.11 211.28C47.14 214.08 37.36 207.5 34.48 194.14C31 178.02 40.05 161.44 57.4 157.7C65.54 155.95 72.13 157.1 76.22 159.67C78.48 161.19 79.96 163.2 80.42 165.35C81.99 172.65 72.85 174.62 72.35 174.16C69.68 171.44 65.52 169.69 60.68 170.73C52.77 172.43 47.87 180.64 49.8 189.63C51.09 196.35 56.15 200.07 62.6 198.68C65.14 198.13 66.98 197.02 68.33 195.44C69.54 193.98 70.34 192.84 70.68 189.95L65.08 191.16C61.55 191.92 59.36 190.71 58.84 188.32C58.58 187.09 58.45 183.91 59.59 182.13C60.39 181 61.41 180.13 64.33 179.51L78.54 176.45C82.69 175.56 84.7 177.45 84.73 182.42L84.76 203.79C84.77 204.19 83.08 205.68 80.39 206.26C76.86 207.02 73.93 206.13 72.48 202.74C70.26 206.92 66.02 210.01 60.11 211.28Z" fill="white"/>
<path d="M107.12 201.06C98.9 202.83 92.02 198.13 90.02 188.84C87.32 176.32 92.98 162.33 105.19 159.69C110.03 158.65 115.12 159.88 118.29 163.78C119.37 159.13 122.14 156.68 126.98 155.64C129.82 155.03 132.39 155.76 132.43 156.32L132.48 183.79C132.46 188.54 133.53 190.15 136.4 190.42C136.49 190.48 136.22 194.8 129.54 196.24C123.47 197.55 119.95 195.02 118.71 190.38C117.1 195.54 113.03 199.79 107.12 201.06ZM110.22 170.34C104.69 171.53 102.39 177.65 103.6 183.26C104.41 187.02 107.33 189.04 110.79 188.3C114.94 187.41 117.73 183.59 117.69 178.54L117.67 173.64C116.01 171.11 113.6 169.62 110.22 170.34Z" fill="white"/>
<path d="M189.3 141.57C196.21 140.08 201.54 144.32 203 151.07C203.58 153.76 203.54 157.3 203.22 162.51C203 166.33 202.87 169.49 203.21 171.03C203.69 173.26 204.91 174.04 207 174.07C207.23 174.02 206.9 179.55 199.37 181.18C193 182.55 189.66 180.14 188.69 175.61C188.21 173.38 188.27 171.04 188.54 166.32C188.75 162.82 188.76 160.25 188.49 159.02C187.88 156.18 185.88 154.76 183.5 155.27C181.51 155.7 180.09 156.97 178.87 159.48C178.85 159.4 178.99 177.53 178.99 177.53C178.99 183.16 177.38 185.35 173.61 186.16L172.08 186.49C168.08 187.35 164.21 186.51 164.24 180.71L164.16 166.18C164.12 162.26 162.08 159.88 159.24 160.5C157.1 160.96 155.76 162.21 154.56 164.48L154.57 182.8C154.65 188.41 153.04 190.6 149.2 191.43L147.74 191.74C143.74 192.6 139.85 191.67 139.82 185.97L139.73 153.85C139.74 153.53 141.45 152.51 143.83 152C147.59 151.19 151.62 152.33 153.28 157.44C155.54 151.89 159.29 148.03 164.97 146.8C170.27 145.66 175.15 147.82 177.46 152.55C179.63 147.03 183.23 142.87 189.3 141.57Z" fill="white"/>
<path d="M230.35 164.06C234.8 163.1 237.91 160.02 239.47 156.79C239.53 156.7 245.45 156.23 246.43 160.75C246.99 163.36 246.51 164.83 245.25 166.8C243.32 169.79 239.05 172.72 232.29 174.17C218.77 177.08 211.17 171.25 209.1 161.65C206.1 147.75 214.76 136.08 228.04 133.22C238.48 130.97 245.04 134.54 246.57 141.68C248.27 149.59 244.29 155.35 227.48 158.97C225.56 159.38 223.57 159.81 221.31 160.14C222.55 163.65 225.66 165.07 230.35 164.06ZM224.47 150.94C232.99 149.1 235.26 146.93 234.78 144.7C234.43 143.09 232.51 141.98 229.35 142.66C225.05 143.59 222.15 147.27 221.08 151.59C222.31 151.4 223.47 151.16 224.47 150.94Z" fill="white"/>
<path d="M15.62 97.82L15.58 67.05L7.75 68.74C3.52 69.65 0.81 68.23 0.2 65.39C-0.12 63.93 -0.199996 60.17 1.18 58.02C2.08 56.62 3.33 55.71 6.86 54.95L38.57 48.11C42.8 47.2 45.51 48.62 46.12 51.46C46.44 52.92 46.53 56.68 45.14 58.82C44.24 60.22 42.99 61.14 39.46 61.9L31.01 63.72L31.09 94.64C31.04 99.64 29.4 102.48 24.95 103.44L22.8 103.9C18.58 104.81 15.63 102.72 15.62 97.82Z" fill="#223547"/>
<path d="M75.76 85.18C75.28 82.95 75.34 80.61 75.61 75.89C75.82 72.39 75.83 69.82 75.56 68.59C74.95 65.75 73.03 64.31 70.12 64.94C67.59 65.49 66.21 66.91 65.07 69.48L65.05 87.32C65.13 92.93 63.59 95.11 59.83 95.92L58.3 96.25C54.3 97.11 50.41 96.18 50.31 90.5L50.16 48.43C50.17 42.88 51.71 40.7 55.48 39.89L57.01 39.56C61.01 38.7 64.96 39.53 64.9 45.25L64.99 61.3C66.81 56.33 70.77 52.34 76.22 51.16C83.29 49.64 88.55 53.57 90.07 60.63C90.65 63.32 90.61 66.86 90.29 72.07C90.07 75.89 89.95 79.05 90.28 80.59C90.76 82.82 91.97 83.6 94.07 83.63C94.22 83.6 93.96 89.12 86.44 90.74C79.99 92.14 76.73 89.71 75.76 85.18Z" fill="#223547"/>
<path d="M117.34 73.65C121.79 72.69 124.9 69.61 126.46 66.38C126.52 66.29 132.44 65.82 133.42 70.34C133.98 72.95 133.5 74.42 132.24 76.39C130.31 79.38 126.04 82.31 119.28 83.76C105.76 86.67 98.16 80.84 96.09 71.24C93.09 57.34 101.75 45.67 115.03 42.81C125.47 40.56 132.03 44.13 133.56 51.27C135.26 59.18 131.28 64.94 114.47 68.56C112.55 68.97 110.56 69.4 108.3 69.73C109.53 73.24 112.65 74.66 117.34 73.65ZM111.45 60.53C119.97 58.69 122.24 56.52 121.76 54.29C121.41 52.68 119.49 51.57 116.33 52.25C112.03 53.18 109.13 56.86 108.06 61.18C109.3 60.99 110.45 60.74 111.45 60.53Z" fill="#223547"/>
<path d="M15.37 158.17L15.32 120.65C15.34 115.5 17.13 112.63 21.58 111.67L22.96 111.37C26.19 110.67 28.09 111.3 30.72 114.19L47.91 133.95L47.84 113.48C47.81 108.5 49.22 105.71 53.67 104.75L55.36 104.38C59.58 103.47 62.29 105.61 62.23 110.53L62.37 148.11C62.34 153.18 60.55 156.05 56.17 157L55.24 157.2C52.1 157.88 50.19 157.25 47.48 154.38L29.72 133.86L29.82 155.21C29.85 160.19 28.44 162.98 23.99 163.94L22.23 164.32C18.09 165.22 15.38 163.07 15.37 158.17Z" fill="#223547"/>
<path d="M85.66 151.21C77.44 152.98 70.56 148.28 68.56 138.99C65.86 126.47 71.52 112.48 83.73 109.84C88.57 108.8 93.66 110.03 96.83 113.93C97.91 109.28 100.68 106.83 105.52 105.79C108.36 105.18 110.93 105.91 110.97 106.47L111.02 133.94C111 138.69 112.07 140.3 114.94 140.57C115.03 140.63 114.76 144.95 108.08 146.39C102.01 147.7 98.49 145.17 97.25 140.53C95.64 145.69 91.57 149.94 85.66 151.21ZM88.76 120.5C83.23 121.69 80.93 127.81 82.14 133.42C82.95 137.18 85.87 139.2 89.33 138.46C93.48 137.57 96.27 133.75 96.23 128.7L96.21 123.8C94.54 121.26 92.14 119.77 88.76 120.5Z" fill="#223547"/>
<path d="M167.84 91.72C174.75 90.23 180.08 94.47 181.54 101.22C182.12 103.91 182.08 107.45 181.76 112.66C181.54 116.48 181.41 119.64 181.75 121.18C182.23 123.41 183.45 124.19 185.54 124.22C185.77 124.17 185.44 129.7 177.91 131.33C171.54 132.7 168.2 130.29 167.23 125.76C166.75 123.53 166.81 121.19 167.08 116.47C167.29 112.97 167.3 110.4 167.03 109.17C166.42 106.33 164.42 104.91 162.04 105.42C160.05 105.85 158.63 107.12 157.41 109.63C157.39 109.55 157.53 127.68 157.53 127.68C157.53 133.31 155.92 135.5 152.15 136.31L150.62 136.64C146.62 137.5 142.75 136.66 142.78 130.86L142.7 116.33C142.66 112.41 140.62 110.03 137.78 110.65C135.64 111.11 134.3 112.36 133.1 114.63L133.11 132.95C133.19 138.56 131.58 140.75 127.74 141.58L126.28 141.89C122.28 142.75 118.39 141.82 118.36 136.12L118.27 104C118.28 103.68 119.99 102.66 122.37 102.15C126.13 101.34 130.16 102.48 131.82 107.59C134.08 102.04 137.83 98.18 143.51 96.95C148.81 95.81 153.69 97.97 156 102.7C158.17 97.18 161.78 93.02 167.84 91.72Z" fill="#223547"/>
<path d="M208.89 114.21C213.34 113.25 216.45 110.17 218.01 106.94C218.07 106.85 223.99 106.38 224.97 110.9C225.53 113.51 225.05 114.98 223.79 116.95C221.86 119.94 217.59 122.87 210.83 124.32C197.31 127.23 189.71 121.4 187.64 111.8C184.64 97.9 193.3 86.23 206.58 83.37C217.02 81.12 223.58 84.69 225.11 91.83C226.81 99.74 222.83 105.5 206.02 109.12C204.1 109.53 202.11 109.96 199.85 110.29C201.09 113.8 204.2 115.22 208.89 114.21ZM203.01 101.09C211.53 99.25 213.8 97.08 213.32 94.85C212.97 93.24 211.05 92.13 207.89 92.81C203.59 93.74 200.69 97.42 199.62 101.74C200.86 101.55 202.01 101.31 203.01 101.09Z" fill="#223547"/>
<path d="M52.69 218.71C39.72 221.51 29.94 214.93 27.06 201.57C23.58 185.45 32.63 168.87 49.98 165.13C58.12 163.38 64.71 164.53 68.8 167.1C71.06 168.62 72.54 170.63 73 172.78C74.57 180.08 65.43 182.05 64.93 181.59C62.26 178.87 58.1 177.12 53.26 178.16C45.35 179.86 40.45 188.07 42.38 197.06C43.67 203.78 48.73 207.5 55.18 206.11C57.72 205.56 59.56 204.45 60.91 202.87C62.12 201.41 62.92 200.27 63.26 197.38L57.66 198.59C54.13 199.35 51.94 198.14 51.42 195.75C51.16 194.52 51.03 191.34 52.17 189.56C52.97 188.43 53.99 187.56 56.91 186.94L71.12 183.88C75.27 182.99 77.28 184.88 77.31 189.85L77.34 211.22C77.35 211.62 75.66 213.11 72.97 213.69C69.44 214.45 66.51 213.56 65.06 210.17C62.84 214.35 58.6 217.43 52.69 218.71Z" fill="#223547"/>
<path d="M99.7 208.49C91.48 210.26 84.6 205.56 82.6 196.27C79.9 183.75 85.56 169.76 97.77 167.12C102.61 166.08 107.7 167.31 110.87 171.21C111.95 166.56 114.72 164.11 119.56 163.07C122.4 162.46 124.97 163.19 125.01 163.75L125.06 191.22C125.04 195.97 126.11 197.58 128.98 197.85C129.07 197.91 128.8 202.23 122.12 203.67C116.05 204.98 112.53 202.45 111.29 197.81C109.68 202.97 105.61 207.21 99.7 208.49ZM102.8 177.77C97.27 178.96 94.97 185.08 96.18 190.69C96.99 194.45 99.91 196.47 103.37 195.73C107.52 194.84 110.31 191.02 110.27 185.97L110.25 181.07C108.58 178.53 106.18 177.04 102.8 177.77Z" fill="#223547"/>
<path d="M181.88 148.99C188.79 147.5 194.12 151.74 195.58 158.49C196.16 161.18 196.12 164.72 195.8 169.93C195.58 173.75 195.45 176.91 195.79 178.45C196.27 180.68 197.49 181.46 199.58 181.49C199.81 181.44 199.48 186.97 191.95 188.6C185.58 189.97 182.24 187.56 181.27 183.03C180.79 180.8 180.85 178.46 181.12 173.74C181.33 170.24 181.34 167.67 181.07 166.44C180.46 163.6 178.46 162.18 176.08 162.69C174.09 163.12 172.67 164.39 171.45 166.9C171.43 166.82 171.57 184.95 171.57 184.95C171.57 190.58 169.96 192.77 166.19 193.58L164.66 193.91C160.66 194.77 156.79 193.93 156.82 188.13L156.74 173.6C156.7 169.68 154.66 167.3 151.82 167.92C149.68 168.38 148.34 169.63 147.14 171.9L147.15 190.22C147.23 195.83 145.62 198.02 141.78 198.85L140.32 199.16C136.32 200.02 132.43 199.09 132.4 193.39L132.31 161.27C132.32 160.95 134.03 159.93 136.41 159.42C140.17 158.61 144.2 159.75 145.86 164.86C148.12 159.31 151.87 155.45 157.55 154.22C162.85 153.08 167.73 155.24 170.04 159.97C172.2 154.45 175.81 150.3 181.88 148.99Z" fill="#223547"/>
<path d="M222.93 171.48C227.38 170.52 230.49 167.44 232.05 164.21C232.11 164.12 238.03 163.65 239.01 168.17C239.57 170.78 239.09 172.25 237.83 174.22C235.9 177.21 231.63 180.14 224.87 181.59C211.35 184.5 203.75 178.67 201.68 169.07C198.68 155.17 207.34 143.5 220.62 140.64C231.06 138.39 237.62 141.96 239.15 149.1C240.85 157.01 236.87 162.77 220.06 166.39C218.14 166.8 216.15 167.23 213.89 167.56C215.12 171.08 218.24 172.49 222.93 171.48ZM217.04 158.36C225.56 156.52 227.83 154.35 227.35 152.12C227 150.51 225.08 149.4 221.92 150.08C217.62 151.01 214.72 154.69 213.65 159.01C214.89 158.83 216.04 158.58 217.04 158.36Z" fill="#223547"/>
<path d="M181.17 62.53C196.667 62.53 209.23 49.9671 209.23 34.47C209.23 18.9729 196.667 6.41 181.17 6.41C165.673 6.41 153.11 18.9729 153.11 34.47C153.11 49.9671 165.673 62.53 181.17 62.53Z" fill="#223547"/>
<path d="M187.09 56.61C202.587 56.61 215.15 44.0471 215.15 28.55C215.15 13.0529 202.587 0.48999 187.09 0.48999C171.593 0.48999 159.03 13.0529 159.03 28.55C159.03 44.0471 171.593 56.61 187.09 56.61Z" fill="#2B4C68"/>
<path d="M194.98 35.19C195.969 35.19 196.77 34.3886 196.77 33.4C196.77 32.4114 195.969 31.61 194.98 31.61C193.991 31.61 193.19 32.4114 193.19 33.4C193.19 34.3886 193.991 35.19 194.98 35.19Z" fill="white"/>
<path d="M170.34 28.27C171.329 28.27 172.13 27.4686 172.13 26.48C172.13 25.4914 171.329 24.69 170.34 24.69C169.351 24.69 168.55 25.4914 168.55 26.48C168.55 27.4686 169.351 28.27 170.34 28.27Z" fill="white"/>
<path d="M179.47 41.32C182.88 42.28 186.58 39.82 187.9 35.79C187.97 35.57 187.84 35.33 187.61 35.26L175.67 31.91C175.44 31.85 175.2 31.98 175.15 32.21C174.18 36.34 176.06 40.36 179.47 41.32Z" fill="white"/>
<path d="M23.04 90.4L23 59.63L15.17 61.32C10.94 62.23 8.23 60.81 7.62 57.97C7.3 56.51 7.22 52.75 8.6 50.6C9.5 49.2 10.75 48.29 14.28 47.53L45.99 40.69C50.22 39.78 52.93 41.2 53.54 44.04C53.86 45.5 53.95 49.26 52.56 51.4C51.66 52.8 50.41 53.72 46.88 54.48L38.43 56.3L38.51 87.22C38.46 92.22 36.82 95.06 32.37 96.02L30.22 96.48C26 97.39 23.06 95.29 23.04 90.4Z" fill="white"/>
<path d="M83.18 77.76C82.7 75.53 82.76 73.19 83.03 68.47C83.24 64.97 83.25 62.4 82.98 61.17C82.37 58.33 80.45 56.89 77.54 57.52C75.01 58.07 73.63 59.49 72.49 62.06L72.47 79.9C72.55 85.51 71.01 87.69 67.25 88.5L65.72 88.83C61.72 89.69 57.83 88.76 57.73 83.08L57.58 41.01C57.59 35.46 59.13 33.28 62.9 32.47L64.43 32.14C68.43 31.28 72.38 32.11 72.32 37.83L72.41 53.88C74.23 48.91 78.19 44.92 83.64 43.74C90.71 42.22 95.97 46.15 97.49 53.21C98.07 55.9 98.03 59.44 97.71 64.65C97.49 68.47 97.37 71.63 97.7 73.17C98.18 75.4 99.39 76.18 101.49 76.21C101.64 76.18 101.38 81.7 93.86 83.32C87.42 84.71 84.16 82.28 83.18 77.76Z" fill="white"/>
<path d="M124.76 66.22C129.21 65.26 132.32 62.18 133.88 58.95C133.94 58.86 139.86 58.39 140.84 62.91C141.4 65.52 140.92 66.99 139.66 68.96C137.73 71.95 133.46 74.88 126.7 76.33C113.18 79.24 105.58 73.41 103.51 63.81C100.51 49.91 109.17 38.24 122.45 35.38C132.89 33.13 139.45 36.7 140.98 43.84C142.68 51.75 138.7 57.51 121.89 61.13C119.97 61.54 117.98 61.97 115.72 62.3C116.96 65.82 120.07 67.23 124.76 66.22ZM118.88 53.1C127.4 51.26 129.67 49.09 129.19 46.86C128.84 45.25 126.92 44.14 123.76 44.82C119.46 45.75 116.56 49.43 115.49 53.75C116.73 53.57 117.88 53.32 118.88 53.1Z" fill="white"/>
<path d="M22.8 150.75L22.75 113.23C22.77 108.08 24.56 105.21 29.01 104.25L30.39 103.95C33.62 103.25 35.52 103.88 38.15 106.77L55.34 126.53L55.27 106.06C55.24 101.08 56.65 98.29 61.1 97.33L62.79 96.96C67.01 96.05 69.72 98.19 69.66 103.11L69.8 140.69C69.77 145.76 67.98 148.63 63.6 149.58L62.67 149.78C59.53 150.46 57.62 149.83 54.91 146.96L37.15 126.44L37.25 147.79C37.28 152.77 35.87 155.56 31.42 156.52L29.66 156.9C25.52 157.79 22.8 155.65 22.8 150.75Z" fill="white"/>
<path d="M93.08 143.79C84.86 145.56 77.98 140.86 75.98 131.57C73.28 119.05 78.94 105.06 91.15 102.42C95.99 101.38 101.08 102.61 104.25 106.51C105.33 101.86 108.1 99.41 112.94 98.37C115.78 97.76 118.35 98.49 118.39 99.05L118.44 126.52C118.42 131.27 119.49 132.88 122.36 133.15C122.45 133.21 122.18 137.53 115.5 138.97C109.43 140.28 105.91 137.75 104.67 133.11C103.06 138.27 98.99 142.52 93.08 143.79ZM96.18 113.07C90.65 114.26 88.35 120.38 89.56 125.99C90.37 129.75 93.29 131.77 96.75 131.03C100.9 130.14 103.69 126.32 103.65 121.27L103.63 116.37C101.97 113.83 99.56 112.34 96.18 113.07Z" fill="white"/>
<path d="M175.27 84.29C182.18 82.8 187.51 87.04 188.97 93.79C189.55 96.48 189.51 100.02 189.19 105.23C188.97 109.05 188.84 112.21 189.18 113.75C189.66 115.98 190.88 116.76 192.97 116.79C193.2 116.74 192.87 122.27 185.34 123.9C178.97 125.27 175.63 122.86 174.66 118.33C174.18 116.1 174.24 113.76 174.51 109.04C174.72 105.54 174.73 102.97 174.46 101.74C173.85 98.9 171.85 97.48 169.47 97.99C167.48 98.42 166.06 99.69 164.84 102.2C164.82 102.12 164.96 120.25 164.96 120.25C164.96 125.88 163.35 128.07 159.58 128.88L158.05 129.21C154.05 130.07 150.18 129.23 150.21 123.43L150.13 108.9C150.09 104.98 148.05 102.6 145.21 103.22C143.07 103.68 141.73 104.93 140.53 107.2L140.54 125.52C140.62 131.13 139.01 133.32 135.17 134.15L133.71 134.46C129.71 135.32 125.82 134.39 125.79 128.69L125.7 96.57C125.71 96.25 127.42 95.23 129.8 94.72C133.56 93.91 137.59 95.05 139.25 100.16C141.51 94.61 145.26 90.75 150.94 89.52C156.24 88.38 161.12 90.54 163.43 95.27C165.6 89.75 169.2 85.6 175.27 84.29Z" fill="white"/>
<path d="M216.32 106.79C220.77 105.83 223.88 102.75 225.44 99.52C225.5 99.43 231.42 98.96 232.4 103.48C232.96 106.09 232.48 107.56 231.22 109.53C229.29 112.52 225.02 115.45 218.26 116.9C204.74 119.81 197.14 113.98 195.07 104.38C192.07 90.48 200.73 78.81 214.01 75.95C224.45 73.7 231.01 77.27 232.54 84.41C234.24 92.32 230.26 98.08 213.45 101.7C211.53 102.11 209.54 102.54 207.28 102.87C208.51 106.38 211.63 107.8 216.32 106.79ZM210.43 93.67C218.95 91.83 221.22 89.66 220.74 87.43C220.39 85.82 218.47 84.71 215.31 85.39C211.01 86.32 208.11 90 207.04 94.32C208.28 94.13 209.43 93.88 210.43 93.67Z" fill="white"/>
<path d="M60.11 211.28C47.14 214.08 37.36 207.5 34.48 194.14C31 178.02 40.05 161.44 57.4 157.7C65.54 155.95 72.13 157.1 76.22 159.67C78.48 161.19 79.96 163.2 80.42 165.35C81.99 172.65 72.85 174.62 72.35 174.16C69.68 171.44 65.52 169.69 60.68 170.73C52.77 172.43 47.87 180.64 49.8 189.63C51.09 196.35 56.15 200.07 62.6 198.68C65.14 198.13 66.98 197.02 68.33 195.44C69.54 193.98 70.34 192.84 70.68 189.95L65.08 191.16C61.55 191.92 59.36 190.71 58.84 188.32C58.58 187.09 58.45 183.91 59.59 182.13C60.39 181 61.41 180.13 64.33 179.51L78.54 176.45C82.69 175.56 84.7 177.45 84.73 182.42L84.76 203.79C84.77 204.19 83.08 205.68 80.39 206.26C76.86 207.02 73.93 206.13 72.48 202.74C70.26 206.92 66.02 210.01 60.11 211.28Z" fill="white"/>
<path d="M107.12 201.06C98.9 202.83 92.02 198.13 90.02 188.84C87.32 176.32 92.98 162.33 105.19 159.69C110.03 158.65 115.12 159.88 118.29 163.78C119.37 159.13 122.14 156.68 126.98 155.64C129.82 155.03 132.39 155.76 132.43 156.32L132.48 183.79C132.46 188.54 133.53 190.15 136.4 190.42C136.49 190.48 136.22 194.8 129.54 196.24C123.47 197.55 119.95 195.02 118.71 190.38C117.1 195.54 113.03 199.79 107.12 201.06ZM110.22 170.34C104.69 171.53 102.39 177.65 103.6 183.26C104.41 187.02 107.33 189.04 110.79 188.3C114.94 187.41 117.73 183.59 117.69 178.54L117.67 173.64C116.01 171.11 113.6 169.62 110.22 170.34Z" fill="white"/>
<path d="M189.3 141.57C196.21 140.08 201.54 144.32 203 151.07C203.58 153.76 203.54 157.3 203.22 162.51C203 166.33 202.87 169.49 203.21 171.03C203.69 173.26 204.91 174.04 207 174.07C207.23 174.02 206.9 179.55 199.37 181.18C193 182.55 189.66 180.14 188.69 175.61C188.21 173.38 188.27 171.04 188.54 166.32C188.75 162.82 188.76 160.25 188.49 159.02C187.88 156.18 185.88 154.76 183.5 155.27C181.51 155.7 180.09 156.97 178.87 159.48C178.85 159.4 178.99 177.53 178.99 177.53C178.99 183.16 177.38 185.35 173.61 186.16L172.08 186.49C168.08 187.35 164.21 186.51 164.24 180.71L164.16 166.18C164.12 162.26 162.08 159.88 159.24 160.5C157.1 160.96 155.76 162.21 154.56 164.48L154.57 182.8C154.65 188.41 153.04 190.6 149.2 191.43L147.74 191.74C143.74 192.6 139.85 191.67 139.82 185.97L139.73 153.85C139.74 153.53 141.45 152.51 143.83 152C147.59 151.19 151.62 152.33 153.28 157.44C155.54 151.89 159.29 148.03 164.97 146.8C170.27 145.66 175.15 147.82 177.46 152.55C179.63 147.03 183.23 142.87 189.3 141.57Z" fill="white"/>
<path d="M230.35 164.06C234.8 163.1 237.91 160.02 239.47 156.79C239.53 156.7 245.45 156.23 246.43 160.75C246.99 163.36 246.51 164.83 245.25 166.8C243.32 169.79 239.05 172.72 232.29 174.17C218.77 177.08 211.17 171.25 209.1 161.65C206.1 147.75 214.76 136.08 228.04 133.22C238.48 130.97 245.04 134.54 246.57 141.68C248.27 149.59 244.29 155.35 227.48 158.97C225.56 159.38 223.57 159.81 221.31 160.14C222.55 163.65 225.66 165.07 230.35 164.06ZM224.47 150.94C232.99 149.1 235.26 146.93 234.78 144.7C234.43 143.09 232.51 141.98 229.35 142.66C225.05 143.59 222.15 147.27 221.08 151.59C222.31 151.4 223.47 151.16 224.47 150.94Z" fill="white"/>
</svg>
