<svg width="247" height="189" viewBox="0 0 247 189" fill="none" xmlns="http://www.w3.org/2000/svg">
<path d="M15.62 66.82L15.58 36.05L7.75 37.74C3.52 38.65 0.81 37.23 0.2 34.39C-0.12 32.93 -0.199996 29.17 1.18 27.02C2.08 25.62 3.33 24.71 6.86 23.95L38.57 17.11C42.8 16.2 45.51 17.62 46.12 20.46C46.44 21.92 46.53 25.68 45.14 27.82C44.24 29.22 42.99 30.14 39.46 30.9L31.01 32.72L31.09 63.64C31.04 68.64 29.4 71.48 24.95 72.44L22.8 72.9C18.58 73.81 15.63 71.72 15.62 66.82Z" fill="#223547"/>
<path d="M75.76 54.18C75.28 51.95 75.34 49.61 75.61 44.89C75.82 41.39 75.83 38.82 75.56 37.59C74.95 34.75 73.03 33.31 70.12 33.94C67.59 34.49 66.21 35.91 65.07 38.48L65.05 56.32C65.13 61.93 63.59 64.11 59.83 64.92L58.3 65.25C54.3 66.11 50.41 65.18 50.31 59.5L50.16 17.43C50.17 11.88 51.71 9.7 55.48 8.89L57.01 8.56C61.01 7.7 64.96 8.53 64.9 14.25L64.99 30.3C66.81 25.33 70.77 21.34 76.22 20.16C83.29 18.64 88.55 22.57 90.07 29.63C90.65 32.32 90.61 35.86 90.29 41.07C90.07 44.89 89.95 48.05 90.28 49.59C90.76 51.82 91.97 52.6 94.07 52.63C94.22 52.6 93.96 58.12 86.44 59.74C79.99 61.14 76.73 58.71 75.76 54.18Z" fill="#223547"/>
<path d="M117.34 42.65C121.79 41.69 124.9 38.61 126.46 35.38C126.52 35.29 132.44 34.82 133.42 39.34C133.98 41.95 133.5 43.42 132.24 45.39C130.31 48.38 126.04 51.31 119.28 52.76C105.76 55.67 98.16 49.84 96.09 40.24C93.09 26.34 101.75 14.67 115.03 11.81C125.47 9.56 132.03 13.13 133.56 20.27C135.26 28.18 131.28 33.94 114.47 37.56C112.55 37.97 110.56 38.4 108.3 38.73C109.53 42.24 112.65 43.66 117.34 42.65ZM111.45 29.53C119.97 27.69 122.24 25.52 121.76 23.29C121.41 21.68 119.49 20.57 116.33 21.25C112.03 22.18 109.13 25.86 108.06 30.18C109.3 29.99 110.45 29.74 111.45 29.53Z" fill="#223547"/>
<path d="M15.37 127.17L15.32 89.65C15.34 84.5 17.13 81.63 21.58 80.67L22.96 80.37C26.19 79.67 28.09 80.3 30.72 83.19L47.91 102.95L47.84 82.48C47.81 77.5 49.22 74.71 53.67 73.75L55.36 73.38C59.58 72.47 62.29 74.61 62.23 79.53L62.37 117.11C62.34 122.18 60.55 125.05 56.17 126L55.24 126.2C52.1 126.88 50.19 126.25 47.48 123.38L29.72 102.86L29.82 124.21C29.85 129.19 28.44 131.98 23.99 132.94L22.23 133.32C18.09 134.22 15.38 132.07 15.37 127.17Z" fill="#223547"/>
<path d="M85.66 120.21C77.44 121.98 70.56 117.28 68.56 107.99C65.86 95.47 71.52 81.48 83.73 78.84C88.57 77.8 93.66 79.03 96.83 82.93C97.91 78.28 100.68 75.83 105.52 74.79C108.36 74.18 110.93 74.91 110.97 75.47L111.02 102.94C111 107.69 112.07 109.3 114.94 109.57C115.03 109.63 114.76 113.95 108.08 115.39C102.01 116.7 98.49 114.17 97.25 109.53C95.64 114.69 91.57 118.94 85.66 120.21ZM88.76 89.5C83.23 90.69 80.93 96.81 82.14 102.42C82.95 106.18 85.87 108.2 89.33 107.46C93.48 106.57 96.27 102.75 96.23 97.7L96.21 92.8C94.54 90.26 92.14 88.77 88.76 89.5Z" fill="#223547"/>
<path d="M167.84 60.72C174.75 59.23 180.08 63.47 181.54 70.22C182.12 72.91 182.08 76.45 181.76 81.66C181.54 85.48 181.41 88.64 181.75 90.18C182.23 92.41 183.45 93.19 185.54 93.22C185.77 93.17 185.44 98.7 177.91 100.33C171.54 101.7 168.2 99.29 167.23 94.76C166.75 92.53 166.81 90.19 167.08 85.47C167.29 81.97 167.3 79.4 167.03 78.17C166.42 75.33 164.42 73.91 162.04 74.42C160.05 74.85 158.63 76.12 157.41 78.63C157.39 78.55 157.53 96.68 157.53 96.68C157.53 102.31 155.92 104.5 152.15 105.31L150.62 105.64C146.62 106.5 142.75 105.66 142.78 99.86L142.7 85.33C142.66 81.41 140.62 79.03 137.78 79.65C135.64 80.11 134.3 81.36 133.1 83.63L133.11 101.95C133.19 107.56 131.58 109.75 127.74 110.58L126.28 110.89C122.28 111.75 118.39 110.82 118.36 105.12L118.27 73C118.28 72.68 119.99 71.66 122.37 71.15C126.13 70.34 130.16 71.48 131.82 76.59C134.08 71.04 137.83 67.18 143.51 65.95C148.81 64.81 153.69 66.97 156 71.7C158.17 66.18 161.78 62.02 167.84 60.72Z" fill="#223547"/>
<path d="M208.89 83.21C213.34 82.25 216.45 79.17 218.01 75.94C218.07 75.85 223.99 75.38 224.97 79.9C225.53 82.51 225.05 83.98 223.79 85.95C221.86 88.94 217.59 91.87 210.83 93.32C197.31 96.23 189.71 90.4 187.64 80.8C184.64 66.9 193.3 55.23 206.58 52.37C217.02 50.12 223.58 53.69 225.11 60.83C226.81 68.74 222.83 74.5 206.02 78.12C204.1 78.53 202.11 78.96 199.85 79.29C201.09 82.8 204.2 84.22 208.89 83.21ZM203.01 70.09C211.53 68.25 213.8 66.08 213.32 63.85C212.97 62.24 211.05 61.13 207.89 61.81C203.59 62.74 200.69 66.42 199.62 70.74C200.86 70.55 202.01 70.31 203.01 70.09Z" fill="#223547"/>
<path d="M52.69 187.71C39.72 190.51 29.94 183.93 27.06 170.57C23.58 154.45 32.63 137.87 49.98 134.13C58.12 132.38 64.71 133.53 68.8 136.1C71.06 137.62 72.54 139.63 73 141.78C74.57 149.08 65.43 151.05 64.93 150.59C62.26 147.87 58.1 146.12 53.26 147.16C45.35 148.86 40.45 157.07 42.38 166.06C43.67 172.78 48.73 176.5 55.18 175.11C57.72 174.56 59.56 173.45 60.91 171.87C62.12 170.41 62.92 169.27 63.26 166.38L57.66 167.59C54.13 168.35 51.94 167.14 51.42 164.75C51.16 163.52 51.03 160.34 52.17 158.56C52.97 157.43 53.99 156.56 56.91 155.94L71.12 152.88C75.27 151.99 77.28 153.88 77.31 158.85L77.34 180.22C77.35 180.62 75.66 182.11 72.97 182.69C69.44 183.45 66.51 182.56 65.06 179.17C62.84 183.35 58.6 186.43 52.69 187.71Z" fill="#223547"/>
<path d="M99.7 177.49C91.48 179.26 84.6 174.56 82.6 165.27C79.9 152.75 85.56 138.76 97.77 136.12C102.61 135.08 107.7 136.31 110.87 140.21C111.95 135.56 114.72 133.11 119.56 132.07C122.4 131.46 124.97 132.19 125.01 132.75L125.06 160.22C125.04 164.97 126.11 166.58 128.98 166.85C129.07 166.91 128.8 171.23 122.12 172.67C116.05 173.98 112.53 171.45 111.29 166.81C109.68 171.97 105.61 176.21 99.7 177.49ZM102.8 146.77C97.27 147.96 94.97 154.08 96.18 159.69C96.99 163.45 99.91 165.47 103.37 164.73C107.52 163.84 110.31 160.02 110.27 154.97L110.25 150.07C108.58 147.53 106.18 146.04 102.8 146.77Z" fill="#223547"/>
<path d="M181.88 117.99C188.79 116.5 194.12 120.74 195.58 127.49C196.16 130.18 196.12 133.72 195.8 138.93C195.58 142.75 195.45 145.91 195.79 147.45C196.27 149.68 197.49 150.46 199.58 150.49C199.81 150.44 199.48 155.97 191.95 157.6C185.58 158.97 182.24 156.56 181.27 152.03C180.79 149.8 180.85 147.46 181.12 142.74C181.33 139.24 181.34 136.67 181.07 135.44C180.46 132.6 178.46 131.18 176.08 131.69C174.09 132.12 172.67 133.39 171.45 135.9C171.43 135.82 171.57 153.95 171.57 153.95C171.57 159.58 169.96 161.77 166.19 162.58L164.66 162.91C160.66 163.77 156.79 162.93 156.82 157.13L156.74 142.6C156.7 138.68 154.66 136.3 151.82 136.92C149.68 137.38 148.34 138.63 147.14 140.9L147.15 159.22C147.23 164.83 145.62 167.02 141.78 167.85L140.32 168.16C136.32 169.02 132.43 168.09 132.4 162.39L132.31 130.27C132.32 129.95 134.03 128.93 136.41 128.42C140.17 127.61 144.2 128.75 145.86 133.86C148.12 128.31 151.87 124.45 157.55 123.22C162.85 122.08 167.73 124.24 170.04 128.97C172.2 123.45 175.81 119.3 181.88 117.99Z" fill="#223547"/>
<path d="M222.93 140.48C227.38 139.52 230.49 136.44 232.05 133.21C232.11 133.12 238.03 132.65 239.01 137.17C239.57 139.78 239.09 141.25 237.83 143.22C235.9 146.21 231.63 149.14 224.87 150.59C211.35 153.5 203.75 147.67 201.68 138.07C198.68 124.17 207.34 112.5 220.62 109.64C231.06 107.39 237.62 110.96 239.15 118.1C240.85 126.01 236.87 131.77 220.06 135.39C218.14 135.8 216.15 136.23 213.89 136.56C215.12 140.08 218.24 141.49 222.93 140.48ZM217.04 127.36C225.56 125.52 227.83 123.35 227.35 121.12C227 119.51 225.08 118.4 221.92 119.08C217.62 120.01 214.72 123.69 213.65 128.01C214.89 127.83 216.04 127.58 217.04 127.36Z" fill="#223547"/>
<path d="M23.04 59.4L23 28.63L15.17 30.32C10.94 31.23 8.23 29.81 7.62 26.97C7.3 25.51 7.22 21.75 8.6 19.6C9.5 18.2 10.75 17.29 14.28 16.53L45.99 9.68998C50.22 8.77998 52.93 10.2 53.54 13.04C53.86 14.5 53.95 18.26 52.56 20.4C51.66 21.8 50.41 22.72 46.88 23.48L38.43 25.3L38.51 56.22C38.46 61.22 36.82 64.06 32.37 65.02L30.22 65.48C26 66.39 23.06 64.29 23.04 59.4Z" fill="white"/>
<path d="M83.18 46.76C82.7 44.53 82.76 42.19 83.03 37.47C83.24 33.97 83.25 31.4 82.98 30.17C82.37 27.33 80.45 25.89 77.54 26.52C75.01 27.07 73.63 28.49 72.49 31.06L72.47 48.9C72.55 54.51 71.01 56.69 67.25 57.5L65.72 57.83C61.72 58.69 57.83 57.76 57.73 52.08L57.58 10.01C57.59 4.45998 59.13 2.27998 62.9 1.46998L64.43 1.13998C68.43 0.279983 72.38 1.10999 72.32 6.82999L72.41 22.88C74.23 17.91 78.19 13.92 83.64 12.74C90.71 11.22 95.97 15.15 97.49 22.21C98.07 24.9 98.03 28.44 97.71 33.65C97.49 37.47 97.37 40.63 97.7 42.17C98.18 44.4 99.39 45.18 101.49 45.21C101.64 45.18 101.38 50.7 93.86 52.32C87.42 53.71 84.16 51.28 83.18 46.76Z" fill="white"/>
<path d="M124.76 35.22C129.21 34.26 132.32 31.18 133.88 27.95C133.94 27.86 139.86 27.39 140.84 31.91C141.4 34.52 140.92 35.99 139.66 37.96C137.73 40.95 133.46 43.88 126.7 45.33C113.18 48.24 105.58 42.41 103.51 32.81C100.51 18.91 109.17 7.24001 122.45 4.38001C132.89 2.13001 139.45 5.7 140.98 12.84C142.68 20.75 138.7 26.51 121.89 30.13C119.97 30.54 117.98 30.97 115.72 31.3C116.96 34.82 120.07 36.23 124.76 35.22ZM118.88 22.1C127.4 20.26 129.67 18.09 129.19 15.86C128.84 14.25 126.92 13.14 123.76 13.82C119.46 14.75 116.56 18.43 115.49 22.75C116.73 22.57 117.88 22.32 118.88 22.1Z" fill="white"/>
<path d="M22.8 119.75L22.75 82.23C22.77 77.08 24.56 74.21 29.01 73.25L30.39 72.95C33.62 72.25 35.52 72.88 38.15 75.77L55.34 95.53L55.27 75.06C55.24 70.08 56.65 67.29 61.1 66.33L62.79 65.96C67.01 65.05 69.72 67.19 69.66 72.11L69.8 109.69C69.77 114.76 67.98 117.63 63.6 118.58L62.67 118.78C59.53 119.46 57.62 118.83 54.91 115.96L37.15 95.44L37.25 116.79C37.28 121.77 35.87 124.56 31.42 125.52L29.66 125.9C25.52 126.79 22.8 124.65 22.8 119.75Z" fill="white"/>
<path d="M93.08 112.79C84.86 114.56 77.98 109.86 75.98 100.57C73.28 88.05 78.94 74.06 91.15 71.42C95.99 70.38 101.08 71.61 104.25 75.51C105.33 70.86 108.1 68.41 112.94 67.37C115.78 66.76 118.35 67.49 118.39 68.05L118.44 95.52C118.42 100.27 119.49 101.88 122.36 102.15C122.45 102.21 122.18 106.53 115.5 107.97C109.43 109.28 105.91 106.75 104.67 102.11C103.06 107.27 98.99 111.52 93.08 112.79ZM96.18 82.07C90.65 83.26 88.35 89.38 89.56 94.99C90.37 98.75 93.29 100.77 96.75 100.03C100.9 99.14 103.69 95.32 103.65 90.27L103.63 85.37C101.97 82.83 99.56 81.34 96.18 82.07Z" fill="white"/>
<path d="M175.27 53.29C182.18 51.8 187.51 56.04 188.97 62.79C189.55 65.48 189.51 69.02 189.19 74.23C188.97 78.05 188.84 81.21 189.18 82.75C189.66 84.98 190.88 85.76 192.97 85.79C193.2 85.74 192.87 91.27 185.34 92.9C178.97 94.27 175.63 91.86 174.66 87.33C174.18 85.1 174.24 82.76 174.51 78.04C174.72 74.54 174.73 71.97 174.46 70.74C173.85 67.9 171.85 66.48 169.47 66.99C167.48 67.42 166.06 68.69 164.84 71.2C164.82 71.12 164.96 89.25 164.96 89.25C164.96 94.88 163.35 97.07 159.58 97.88L158.05 98.21C154.05 99.07 150.18 98.23 150.21 92.43L150.13 77.9C150.09 73.98 148.05 71.6 145.21 72.22C143.07 72.68 141.73 73.93 140.53 76.2L140.54 94.52C140.62 100.13 139.01 102.32 135.17 103.15L133.71 103.46C129.71 104.32 125.82 103.39 125.79 97.69L125.7 65.57C125.71 65.25 127.42 64.23 129.8 63.72C133.56 62.91 137.59 64.05 139.25 69.16C141.51 63.61 145.26 59.75 150.94 58.52C156.24 57.38 161.12 59.54 163.43 64.27C165.6 58.75 169.2 54.6 175.27 53.29Z" fill="white"/>
<path d="M216.32 75.79C220.77 74.83 223.88 71.75 225.44 68.52C225.5 68.43 231.42 67.96 232.4 72.48C232.96 75.09 232.48 76.56 231.22 78.53C229.29 81.52 225.02 84.45 218.26 85.9C204.74 88.81 197.14 82.98 195.07 73.38C192.07 59.48 200.73 47.81 214.01 44.95C224.45 42.7 231.01 46.27 232.54 53.41C234.24 61.32 230.26 67.08 213.45 70.7C211.53 71.11 209.54 71.54 207.28 71.87C208.51 75.38 211.63 76.8 216.32 75.79ZM210.43 62.67C218.95 60.83 221.22 58.66 220.74 56.43C220.39 54.82 218.47 53.71 215.31 54.39C211.01 55.32 208.11 59 207.04 63.32C208.28 63.13 209.43 62.88 210.43 62.67Z" fill="white"/>
<path d="M60.11 180.28C47.14 183.08 37.36 176.5 34.48 163.14C31 147.02 40.05 130.44 57.4 126.7C65.54 124.95 72.13 126.1 76.22 128.67C78.48 130.19 79.96 132.2 80.42 134.35C81.99 141.65 72.85 143.62 72.35 143.16C69.68 140.44 65.52 138.69 60.68 139.73C52.77 141.43 47.87 149.64 49.8 158.63C51.09 165.35 56.15 169.07 62.6 167.68C65.14 167.13 66.98 166.02 68.33 164.44C69.54 162.98 70.34 161.84 70.68 158.95L65.08 160.16C61.55 160.92 59.36 159.71 58.84 157.32C58.58 156.09 58.45 152.91 59.59 151.13C60.39 150 61.41 149.13 64.33 148.51L78.54 145.45C82.69 144.56 84.7 146.45 84.73 151.42L84.76 172.79C84.77 173.19 83.08 174.68 80.39 175.26C76.86 176.02 73.93 175.13 72.48 171.74C70.26 175.92 66.02 179.01 60.11 180.28Z" fill="white"/>
<path d="M107.12 170.06C98.9 171.83 92.02 167.13 90.02 157.84C87.32 145.32 92.98 131.33 105.19 128.69C110.03 127.65 115.12 128.88 118.29 132.78C119.37 128.13 122.14 125.68 126.98 124.64C129.82 124.03 132.39 124.76 132.43 125.32L132.48 152.79C132.46 157.54 133.53 159.15 136.4 159.42C136.49 159.48 136.22 163.8 129.54 165.24C123.47 166.55 119.95 164.02 118.71 159.38C117.1 164.54 113.03 168.79 107.12 170.06ZM110.22 139.34C104.69 140.53 102.39 146.65 103.6 152.26C104.41 156.02 107.33 158.04 110.79 157.3C114.94 156.41 117.73 152.59 117.69 147.54L117.67 142.64C116.01 140.11 113.6 138.62 110.22 139.34Z" fill="white"/>
<path d="M189.3 110.57C196.21 109.08 201.54 113.32 203 120.07C203.58 122.76 203.54 126.3 203.22 131.51C203 135.33 202.87 138.49 203.21 140.03C203.69 142.26 204.91 143.04 207 143.07C207.23 143.02 206.9 148.55 199.37 150.18C193 151.55 189.66 149.14 188.69 144.61C188.21 142.38 188.27 140.04 188.54 135.32C188.75 131.82 188.76 129.25 188.49 128.02C187.88 125.18 185.88 123.76 183.5 124.27C181.51 124.7 180.09 125.97 178.87 128.48C178.85 128.4 178.99 146.53 178.99 146.53C178.99 152.16 177.38 154.35 173.61 155.16L172.08 155.49C168.08 156.35 164.21 155.51 164.24 149.71L164.16 135.18C164.12 131.26 162.08 128.88 159.24 129.5C157.1 129.96 155.76 131.21 154.56 133.48L154.57 151.8C154.65 157.41 153.04 159.6 149.2 160.43L147.74 160.74C143.74 161.6 139.85 160.67 139.82 154.97L139.73 122.85C139.74 122.53 141.45 121.51 143.83 121C147.59 120.19 151.62 121.33 153.28 126.44C155.54 120.89 159.29 117.03 164.97 115.8C170.27 114.66 175.15 116.82 177.46 121.55C179.63 116.03 183.23 111.87 189.3 110.57Z" fill="white"/>
<path d="M230.35 133.06C234.8 132.1 237.91 129.02 239.47 125.79C239.53 125.7 245.45 125.23 246.43 129.75C246.99 132.36 246.51 133.83 245.25 135.8C243.32 138.79 239.05 141.72 232.29 143.17C218.77 146.08 211.17 140.25 209.1 130.65C206.1 116.75 214.76 105.08 228.04 102.22C238.48 99.97 245.04 103.54 246.57 110.68C248.27 118.59 244.29 124.35 227.48 127.97C225.56 128.38 223.57 128.81 221.31 129.14C222.55 132.65 225.66 134.07 230.35 133.06ZM224.47 119.94C232.99 118.1 235.26 115.93 234.78 113.7C234.43 112.09 232.51 110.98 229.35 111.66C225.05 112.59 222.15 116.27 221.08 120.59C222.31 120.4 223.47 120.16 224.47 119.94Z" fill="white"/>
</svg>
